<svg id="arrow_3_" data-name="arrow (3)" xmlns="http://www.w3.org/2000/svg" width="27.5" height="27.5" viewBox="0 0 27.5 27.5">
  <g id="Grupo_4921" data-name="Grupo 4921">
    <g id="Grupo_4920" data-name="Grupo 4920">
      <path id="Trazado_3017" data-name="Trazado 3017" d="M24.277,0H3.223A3.226,3.226,0,0,0,0,3.223v4.3H2.148v-4.3A1.075,1.075,0,0,1,3.223,2.148H24.277a1.075,1.075,0,0,1,1.074,1.074V24.277a1.075,1.075,0,0,1-1.074,1.074H3.223a1.075,1.075,0,0,1-1.074-1.074v-4.3H0v4.3A3.226,3.226,0,0,0,3.223,27.5H24.277A3.226,3.226,0,0,0,27.5,24.277V3.223A3.226,3.226,0,0,0,24.277,0Z" fill="#fff"/>
    </g>
  </g>
  <g id="Grupo_4923" data-name="Grupo 4923" transform="translate(0 7.075)">
    <g id="Grupo_4922" data-name="Grupo 4922">
      <path id="Trazado_3018" data-name="Trazado 3018" d="M12.891,131.716l-1.519,1.519,4.082,4.082H0v2.148H15.453l-4.082,4.082,1.519,1.519,6.675-6.675Z" transform="translate(0 -131.716)" fill="#fff"/>
    </g>
  </g>
</svg>
