<svg xmlns="http://www.w3.org/2000/svg" width="23.43" height="28.678" viewBox="0 0 23.43 28.678">
  <g id="clinic" transform="translate(-18.422)">
    <circle id="Elipse_71" data-name="Elipse 71" cx="1.436" cy="1.436" r="1.436" transform="translate(27.979 0)" fill="#fff"/>
    <circle id="Elipse_72" data-name="Elipse 72" cx="1.436" cy="1.436" r="1.436" transform="translate(35.589 0)" fill="#fff"/>
    <path id="Trazado_2820" data-name="Trazado 2820" d="M41.3,7.1a4,4,0,0,0-3.5-2.018V6.508a2.613,2.613,0,0,1,2.263,3.919L35.5,18.352a2.613,2.613,0,0,1-4.525,0l-4.576-7.925a2.613,2.613,0,0,1,2.263-3.919V5.083a4.037,4.037,0,0,0-3.5,6.056l4.576,7.925a3.988,3.988,0,0,0,2.784,1.955v3.822c0,3.734-2.2,6.771-4.913,6.771s-4.913-3.038-4.913-6.771V20.291a3.56,3.56,0,1,0-1.425,0v4.551c0,4.519,2.843,8.2,6.338,8.2s6.338-3.677,6.338-8.2V21.019a3.988,3.988,0,0,0,2.784-1.955L41.3,11.139A4,4,0,0,0,41.3,7.1Z" transform="translate(0 -4.359)" fill="#fff"/>
  </g>
</svg>
