<svg xmlns="http://www.w3.org/2000/svg" width="27.87" height="24.278" viewBox="0 0 27.87 24.278">
  <g id="customer" transform="translate(0 -33)">
    <path id="Trazado_2810" data-name="Trazado 2810" d="M173.736,42.472A4.736,4.736,0,1,0,169,37.736,4.741,4.741,0,0,0,173.736,42.472Zm0-7.839a3.1,3.1,0,1,1-3.1,3.1A3.106,3.106,0,0,1,173.736,34.633Z" transform="translate(-159.801)" fill="#fff"/>
    <path id="Trazado_2811" data-name="Trazado 2811" d="M379.994,102.988A2.994,2.994,0,1,0,377,99.994,3,3,0,0,0,379.994,102.988Zm0-4.355a1.361,1.361,0,1,1-1.361,1.361A1.362,1.362,0,0,1,379.994,98.633Z" transform="translate(-356.478 -60.516)" fill="#fff"/>
    <path id="Trazado_2812" data-name="Trazado 2812" d="M24.174,241H22.911a3.7,3.7,0,0,0-3.358,2.142A6.572,6.572,0,0,0,14.7,241H13.174a6.572,6.572,0,0,0-4.857,2.142A3.7,3.7,0,0,0,4.959,241H3.7A3.689,3.689,0,0,0,0,244.674v5.945a1.6,1.6,0,0,0,1.6,1.595H6.594a1.909,1.909,0,0,0,1.9,1.742H19.378a1.909,1.909,0,0,0,1.9-1.742h4.936a1.657,1.657,0,0,0,1.658-1.652v-5.888A3.689,3.689,0,0,0,24.174,241ZM1.633,244.674A2.054,2.054,0,0,1,3.7,242.633H4.959a2.054,2.054,0,0,1,2.063,2.041v.559c-.549,1.43-.435,2.286-.435,5.348H1.633Zm18.018,7.375a.274.274,0,0,1-.273.273H8.493a.274.274,0,0,1-.273-.273v-4.461a4.96,4.96,0,0,1,4.955-4.955H14.7a4.96,4.96,0,0,1,4.955,4.955Zm6.587-1.487c0,.028.3.018-4.954.018,0-3.084.113-3.92-.435-5.348v-.559a2.054,2.054,0,0,1,2.063-2.041h1.263a2.054,2.054,0,0,1,2.063,2.041Z" transform="translate(0 -196.678)" fill="#fff"/>
    <path id="Trazado_2813" data-name="Trazado 2813" d="M27.994,102.988A2.994,2.994,0,1,0,25,99.994,3,3,0,0,0,27.994,102.988Zm0-4.355a1.361,1.361,0,1,1-1.361,1.361A1.362,1.362,0,0,1,27.994,98.633Z" transform="translate(-23.639 -60.516)" fill="#fff"/>
  </g>
</svg>
