<svg xmlns="http://www.w3.org/2000/svg" width="39.69" height="30.429" viewBox="0 0 39.69 30.429">
  <g id="draw" transform="translate(0 -59.734)">
    <g id="Grupo_4727" data-name="Grupo 4727" transform="translate(24.071 63.041)">
      <g id="Grupo_4726" data-name="Grupo 4726" transform="translate(0 0)">
        <path id="Trazado_2918" data-name="Trazado 2918" d="M319.52,102.4h-8.343a.661.661,0,0,0,0,1.323h7.681v5.292h-7.276a.661.661,0,0,0,0,1.323h7.938a.662.662,0,0,0,.661-.661v-6.615A.662.662,0,0,0,319.52,102.4Z" transform="translate(-310.516 -102.4)" fill="#fff"/>
      </g>
    </g>
    <g id="Grupo_4729" data-name="Grupo 4729" transform="translate(0 63.041)">
      <g id="Grupo_4728" data-name="Grupo 4728" transform="translate(0 0)">
        <path id="Trazado_2919" data-name="Trazado 2919" d="M12.328,109.015H3.969a2.646,2.646,0,0,1,0-5.292H12.4a.662.662,0,0,0,0-1.323H3.969a3.969,3.969,0,1,0,0,7.938h8.359a.662.662,0,0,0,0-1.323Z" transform="translate(0 -102.4)" fill="#fff"/>
      </g>
    </g>
    <g id="Grupo_4731" data-name="Grupo 4731" transform="translate(32.414 63.041)">
      <g id="Grupo_4730" data-name="Grupo 4730" transform="translate(0 0)">
        <path id="Trazado_2920" data-name="Trazado 2920" d="M425.069,105.789l-5.954-3.308a.662.662,0,0,0-.983.579v6.615a.662.662,0,0,0,.983.579l5.954-3.308a.662.662,0,0,0,0-1.157Zm-5.613,2.762v-4.367l3.93,2.183Z" transform="translate(-418.133 -102.399)" fill="#fff"/>
      </g>
    </g>
    <g id="Grupo_4733" data-name="Grupo 4733" transform="translate(2.646 67.011)">
      <g id="Grupo_4732" data-name="Grupo 4732" transform="translate(0 0)">
        <path id="Trazado_2921" data-name="Trazado 2921" d="M43.816,153.6H34.8a.661.661,0,0,0,0,1.323h9.02a.661.661,0,1,0,0-1.323Z" transform="translate(-34.134 -153.6)" fill="#fff"/>
      </g>
    </g>
    <g id="Grupo_4735" data-name="Grupo 4735" transform="translate(24.673 67.011)">
      <g id="Grupo_4734" data-name="Grupo 4734" transform="translate(0 0)">
        <path id="Trazado_2922" data-name="Trazado 2922" d="M321.387,153.6h-2.449a.661.661,0,0,0,0,1.323h2.449a.661.661,0,0,0,0-1.323Z" transform="translate(-318.277 -153.6)" fill="#fff"/>
      </g>
    </g>
    <g id="Grupo_4737" data-name="Grupo 4737" transform="translate(11.907 59.734)">
      <g id="Grupo_4736" data-name="Grupo 4736" transform="translate(0 0)">
        <path id="Trazado_2923" data-name="Trazado 2923" d="M162.881,61.057l-5.23-.657a.715.715,0,0,0-.116,0,2.314,2.314,0,0,0-3.831.966.659.659,0,0,0-.1.356v8.689a3.2,3.2,0,0,0,1.985,2.969v3.556a.662.662,0,0,0,.661.661h8.6a.662.662,0,0,0,.661-.661V73.377a3.2,3.2,0,0,0,1.985-2.969v-4.7A4.659,4.659,0,0,0,162.881,61.057Zm3.288,9.351A1.883,1.883,0,0,1,164.7,72.25a.661.661,0,0,0-.514.645v3.377h-7.277V72.895a.661.661,0,0,0-.514-.645,1.883,1.883,0,0,1-1.471-1.842V62.049a.992.992,0,1,1,1.985,0,.661.661,0,1,0,1.323,0v-.242l4.525.568a.624.624,0,0,0,.082.005,3.334,3.334,0,0,1,3.331,3.331v4.7Z" transform="translate(-153.6 -59.734)" fill="#fff"/>
      </g>
    </g>
    <g id="Grupo_4739" data-name="Grupo 4739" transform="translate(15.215 60.395)">
      <g id="Grupo_4738" data-name="Grupo 4738" transform="translate(0 0)">
        <path id="Trazado_2924" data-name="Trazado 2924" d="M196.928,68.267a.662.662,0,0,0-.661.661v3.308a.661.661,0,1,0,1.323,0V68.928A.662.662,0,0,0,196.928,68.267Z" transform="translate(-196.267 -68.267)" fill="#fff"/>
      </g>
    </g>
    <g id="Grupo_4741" data-name="Grupo 4741" transform="translate(17.861 61.057)">
      <g id="Grupo_4740" data-name="Grupo 4740" transform="translate(0 0)">
        <path id="Trazado_2925" data-name="Trazado 2925" d="M231.061,76.8a.662.662,0,0,0-.661.661v1.985a.661.661,0,0,0,1.323,0V77.461A.662.662,0,0,0,231.061,76.8Z" transform="translate(-230.4 -76.8)" fill="#fff"/>
      </g>
    </g>
    <g id="Grupo_4743" data-name="Grupo 4743" transform="translate(20.507 61.057)">
      <g id="Grupo_4742" data-name="Grupo 4742" transform="translate(0 0)">
        <path id="Trazado_2926" data-name="Trazado 2926" d="M265.2,76.8a.662.662,0,0,0-.661.661v1.985a.661.661,0,0,0,1.323,0V77.461A.662.662,0,0,0,265.2,76.8Z" transform="translate(-264.534 -76.8)" fill="#fff"/>
      </g>
    </g>
    <g id="Grupo_4745" data-name="Grupo 4745" transform="translate(11.907 76.272)">
      <g id="Grupo_4744" data-name="Grupo 4744">
        <path id="Trazado_2927" data-name="Trazado 2927" d="M166.83,273.067H154.261a.662.662,0,0,0-.661.661v5.292a.662.662,0,0,0,.661.661H166.83a.662.662,0,0,0,.661-.661v-5.292A.662.662,0,0,0,166.83,273.067Zm-.662,5.292H154.923V274.39h11.246v3.969Z" transform="translate(-153.6 -273.067)" fill="#fff"/>
      </g>
    </g>
    <g id="Grupo_4747" data-name="Grupo 4747" transform="translate(21.168 76.272)">
      <g id="Grupo_4746" data-name="Grupo 4746">
        <path id="Trazado_2928" data-name="Trazado 2928" d="M273.729,273.067a.662.662,0,0,0-.661.661v5.292a.661.661,0,0,0,1.323,0v-5.292A.662.662,0,0,0,273.729,273.067Z" transform="translate(-273.067 -273.067)" fill="#fff"/>
      </g>
    </g>
    <g id="Grupo_4749" data-name="Grupo 4749" transform="translate(13.23 81.564)">
      <g id="Grupo_4748" data-name="Grupo 4748">
        <path id="Trazado_2929" data-name="Trazado 2929" d="M181.913,341.333H171.328a.662.662,0,0,0-.661.661v7.277a.662.662,0,0,0,.661.661h10.584a.662.662,0,0,0,.661-.661v-7.277A.662.662,0,0,0,181.913,341.333Zm-.661,7.277H171.99v-5.954h9.261Z" transform="translate(-170.667 -341.333)" fill="#fff"/>
      </g>
    </g>
  </g>
</svg>
