<svg xmlns="http://www.w3.org/2000/svg" width="33.001" height="33" viewBox="0 0 33.001 33">
  <g id="Page-1" transform="translate(0 -0.001)">
    <g id="_001---Degree" data-name="001---Degree" transform="translate(0 0.001)">
      <path id="Shape" d="M32.272,5.565,16.877.065a1.129,1.129,0,0,0-.751,0L.735,5.565a1.1,1.1,0,0,0,0,2.07l7.519,2.686v3.429c0,2.138,7.406,2.2,8.25,2.2s8.25-.062,8.25-2.2V10.321l1.65-.586V11a1.1,1.1,0,0,0,1.1,1.1h1.1A1.1,1.1,0,0,0,29.7,11V9.351a1.627,1.627,0,0,0-.179-.732l2.75-.983a1.1,1.1,0,0,0,0-2.07Zm-8.618,6.975c-2.095-.954-6.509-.99-7.15-.99s-5.055.036-7.15.99V7.749C9.684,7.325,12.278,6.6,16.5,6.6s6.82.725,7.15,1.148Zm-7.15,2.31c-4.07,0-6.626-.672-7.1-1.1.478-.428,3.035-1.1,7.1-1.1s6.626.672,7.1,1.1C23.13,14.179,20.574,14.851,16.5,14.851ZM26.662,8.473l-1.908.68V7.7c0-2.138-7.406-2.2-8.25-2.2s-8.25.062-8.25,2.2V9.153L1.1,6.6,16.512,1.1,27.5,5.029V7.8a1.653,1.653,0,0,0-.842.672ZM28.6,11H27.5V9.351a.55.55,0,1,1,1.1,0Zm0-3.221V5.422L31.9,6.6Z" transform="translate(-0.004 -0.001)" fill="#fff"/>
      <path id="Shape-2" data-name="Shape" d="M31.35,31a.537.537,0,0,0-.1.009A92.093,92.093,0,0,1,16.5,32.1,92.093,92.093,0,0,1,1.748,31.009.62.62,0,0,0,1.65,31C1.265,31,0,31.436,0,37.05S1.265,43.1,1.65,43.1a.627.627,0,0,0,.1-.01,86.02,86.02,0,0,1,11.33-1.033l-1.074,2.575a1.1,1.1,0,0,0,1.454,1.412l.421-.18.182.419a1.094,1.094,0,0,0,1.011.667h.014a1.1,1.1,0,0,0,1.008-.686l.955-2.287L18,46.255a1.1,1.1,0,0,0,1.011.7h.016a1.092,1.092,0,0,0,1.008-.66l.184-.422.414.178a1.1,1.1,0,0,0,1.457-1.418L21.04,42.1a83.861,83.861,0,0,1,10.215.99.537.537,0,0,0,.1.007c.385,0,1.65-.436,1.65-6.05S31.735,31,31.35,31ZM18.26,33.184a11.583,11.583,0,0,1,.4,2.572,3.817,3.817,0,0,0-3.829.356,14.859,14.859,0,0,0-.378-2.933q1,.021,2.05.021C17.1,33.2,17.685,33.193,18.26,33.184ZM17.05,42a2.75,2.75,0,1,1,2.75-2.75A2.75,2.75,0,0,1,17.05,42ZM1.65,32.375A15.426,15.426,0,0,1,2.2,37.05a15.426,15.426,0,0,1-.55,4.675A15.426,15.426,0,0,1,1.1,37.05,15.426,15.426,0,0,1,1.65,32.375Zm1.111,9.444A15.36,15.36,0,0,0,3.3,37.05a15.351,15.351,0,0,0-.54-4.77,96.5,96.5,0,0,0,10.541.871,14.158,14.158,0,0,1,.449,3.9c0,.08,0,.156,0,.232a3.81,3.81,0,0,0-.177,3.6l-.024.058a95.791,95.791,0,0,0-10.785.876ZM15.074,45.85l-.4-.924a.55.55,0,0,0-.721-.286l-.926.409,1.29-3.092a3.846,3.846,0,0,0,1.943,1.062Zm5.075-1.21a.55.55,0,0,0-.721.286l-.407.915-1.179-2.823a3.85,3.85,0,0,0,1.944-1.062l1.287,3.08ZM31.24,41.973a89.073,89.073,0,0,0-10.67-.99l-.039-.095a3.828,3.828,0,0,0-.741-4.337,15.309,15.309,0,0,0-.393-3.389A91.809,91.809,0,0,0,31.24,32.127a12.974,12.974,0,0,1,.66,4.923,13.031,13.031,0,0,1-.66,4.923Z" transform="translate(0 -13.95)" fill="#fff"/>
    </g>
  </g>
</svg>
