<svg xmlns="http://www.w3.org/2000/svg" width="22.229" height="31.907" viewBox="0 0 22.229 31.907">
  <g id="quality" transform="translate(-77.598 0)">
    <path id="Trazado_2818" data-name="Trazado 2818" d="M99.156,8.185l-2.1-1.756-.477-2.693A1.868,1.868,0,0,0,94.74,2.191h0L92,2.194,89.906.438A1.868,1.868,0,0,0,87.5.44L85.408,2.2l-2.735,0A1.868,1.868,0,0,0,80.832,3.75l-.473,2.694L78.266,8.2a1.868,1.868,0,0,0-.415,2.369l1.37,2.367-.472,2.694a1.868,1.868,0,0,0,1.2,2.082l2.306.837.009,11.483A1.87,1.87,0,0,0,85.2,31.572l3.486-2.42,3.485,2.42a1.871,1.871,0,0,0,2.938-1.537V18.566l2.374-.867a1.868,1.868,0,0,0,1.2-2.084l-.477-2.693,1.365-2.37a1.868,1.868,0,0,0-.42-2.368ZM89.224,27.246a.935.935,0,0,0-1.067,0l-4.019,2.789h0l-.007-8.693a1.866,1.866,0,0,0,2.022.5l2.569-.938,2.571.933a1.869,1.869,0,0,0,1.949-.423v8.626ZM96.59,11.989a1.873,1.873,0,0,0-.221,1.26l.477,2.693-2.57.938a1.874,1.874,0,0,0-.816.587c-.01.012-.019.025-.029.038a1.852,1.852,0,0,0-.134.2l-1.365,2.37h0l-2.571-.933a1.874,1.874,0,0,0-1.28,0l-2.569.938-1.37-2.367a1.867,1.867,0,0,0-.263-.349l-.027-.029a1.874,1.874,0,0,0-.691-.444l-2.571-.933.473-2.694A1.874,1.874,0,0,0,80.839,12l-1.37-2.367,2.094-1.76A1.873,1.873,0,0,0,82.2,6.767l.473-2.694,2.735,0a1.874,1.874,0,0,0,1.2-.439l2.094-1.76,2.1,1.756a1.874,1.874,0,0,0,1.2.437h0l2.735,0,.477,2.693a1.874,1.874,0,0,0,.641,1.108l2.1,1.756Z" transform="translate(0 0)" fill="#fff"/>
    <path id="Trazado_2819" data-name="Trazado 2819" d="M174.719,93.29a5.394,5.394,0,1,0,5.394,5.394A5.4,5.4,0,0,0,174.719,93.29Zm0,8.917a3.523,3.523,0,1,1,3.523-3.523A3.527,3.527,0,0,1,174.719,102.207Z" transform="translate(-86.007 -87.472)" fill="#fff"/>
  </g>
</svg>
