<svg xmlns="http://www.w3.org/2000/svg" width="25.5" height="25.5" viewBox="0 0 25.5 25.5">
  <g id="register" transform="translate(0.25 0.25)">
    <path id="Trazado_2814" data-name="Trazado 2814" d="M16.146,24.875H2.6a2.607,2.607,0,0,1-2.6-2.6V5.6A2.607,2.607,0,0,1,2.6,3H4.688a.521.521,0,1,1,0,1.042H2.6A1.564,1.564,0,0,0,1.042,5.6V22.271A1.564,1.564,0,0,0,2.6,23.833H16.146a1.564,1.564,0,0,0,1.563-1.562V5.6a1.564,1.564,0,0,0-1.562-1.562H14.063a.521.521,0,1,1,0-1.042h2.083a2.607,2.607,0,0,1,2.6,2.6V22.271A2.607,2.607,0,0,1,16.146,24.875Z" transform="translate(0 0.125)" fill="#fff" stroke="#fff" stroke-width="0.5"/>
    <path id="Trazado_2815" data-name="Trazado 2815" d="M12.854,6.25H5.562A1.564,1.564,0,0,1,4,4.688V2.6a.521.521,0,0,1,.521-.521H6.656a2.6,2.6,0,0,1,5.1,0H13.9a.521.521,0,0,1,.521.521V4.688A1.564,1.564,0,0,1,12.854,6.25ZM5.042,3.125V4.688a.522.522,0,0,0,.521.521h7.292a.522.522,0,0,0,.521-.521V3.125H11.292a.521.521,0,0,1-.521-.521,1.563,1.563,0,1,0-3.125,0,.521.521,0,0,1-.521.521Z" transform="translate(0.167)" fill="#fff" stroke="#fff" stroke-width="0.5"/>
    <path id="Trazado_2816" data-name="Trazado 2816" d="M22.083,21.625a.522.522,0,0,1-.466-.287l-1.343-2.685A2.615,2.615,0,0,1,20,17.488v-9.4a2.083,2.083,0,1,1,4.167,0v9.4a2.615,2.615,0,0,1-.275,1.165l-1.343,2.685a.522.522,0,0,1-.466.287Zm0-14.583a1.043,1.043,0,0,0-1.042,1.042v9.4a1.581,1.581,0,0,0,.165.7l.877,1.753.877-1.753a1.581,1.581,0,0,0,.165-.7v-9.4A1.043,1.043,0,0,0,22.083,7.042Zm1.343,11.377h.01Z" transform="translate(0.833 0.25)" fill="#fff" stroke="#fff" stroke-width="0.5"/>
  </g>
</svg>
