<svg xmlns="http://www.w3.org/2000/svg" width="37.561" height="26.493" viewBox="0 0 37.561 26.493">
  <g id="video" transform="translate(0 -75.435)">
    <path id="Trazado_2823" data-name="Trazado 2823" d="M35.568,85.415a.551.551,0,0,0,.551-.551V78.1a1.566,1.566,0,0,1,1.565-1.565H64.773A1.566,1.566,0,0,1,66.337,78.1v4.116a.551.551,0,1,0,1.1,0V78.1a2.67,2.67,0,0,0-2.667-2.667H37.684A2.67,2.67,0,0,0,35.017,78.1v6.762a.551.551,0,0,0,.551.551Z" transform="translate(-32.448)" fill="#fff"/>
    <path id="Trazado_2824" data-name="Trazado 2824" d="M37.009,128.839H34.991V115.655a.551.551,0,0,0-1.1,0v13.183h-1.37v-3.42a.551.551,0,0,0-1.1,0v3.42H22.165a.551.551,0,0,0-.551.551v.424a.192.192,0,0,1-.192.192H14.662a.192.192,0,0,1-.192-.192v-.424a.551.551,0,0,0-.551-.551H6.144v-18.6H31.416v12.971a.551.551,0,0,0,1.1,0V109.691a.551.551,0,0,0-.551-.551H5.593a.551.551,0,0,0-.551.551v19.148H3.671V118.3a.551.551,0,0,0-1.1,0v10.537H.551A.551.551,0,0,0,0,129.39v1.677a2.1,2.1,0,0,0,2.093,2.093H35.467a2.1,2.1,0,0,0,2.093-2.093V129.39a.551.551,0,0,0-.551-.551Zm-.551,2.228a.992.992,0,0,1-.991.991H2.093a.992.992,0,0,1-.991-.991v-1.125H13.374a1.3,1.3,0,0,0,1.288,1.167h6.759a1.3,1.3,0,0,0,1.288-1.167H36.458Z" transform="translate(0 -31.232)" fill="#fff"/>
    <path id="Trazado_2825" data-name="Trazado 2825" d="M169.847,173.164a.55.55,0,0,0,.2.751,6.55,6.55,0,1,0-1.826-1.56.55.55,0,0,0,.855-.692,5.384,5.384,0,0,1-1.21-3.423,5.443,5.443,0,1,1,2.73,4.721A.55.55,0,0,0,169.847,173.164Z" transform="translate(-154.534 -79.932)" fill="#fff"/>
    <path id="Trazado_2826" data-name="Trazado 2826" d="M231.981,213.726a.55.55,0,0,0,.326-.107l3.6-2.648a.55.55,0,0,0,0-.886l-3.6-2.648a.55.55,0,0,0-.876.443v5.3a.55.55,0,0,0,.55.55Zm.55-4.758,2.12,1.56-2.12,1.56Z" transform="translate(-214.453 -122.219)" fill="#fff"/>
  </g>
</svg>
